<svg aria-roledescription="er" role="graphics-document document" viewBox="0 0 406.728271484375 854" style="max-width: 406.728px; background-color: white;" xmlns:xlink="http://www.w3.org/1999/xlink" xmlns="http://www.w3.org/2000/svg" width="100%" id="mermaid-0"><style>#mermaid-0{font-family:"trebuchet ms",verdana,arial,sans-serif;font-size:16px;fill:#000000;}#mermaid-0 .error-icon{fill:#552222;}#mermaid-0 .error-text{fill:#552222;stroke:#552222;}#mermaid-0 .edge-thickness-normal{stroke-width:2px;}#mermaid-0 .edge-thickness-thick{stroke-width:3.5px;}#mermaid-0 .edge-pattern-solid{stroke-dasharray:0;}#mermaid-0 .edge-pattern-dashed{stroke-dasharray:3;}#mermaid-0 .edge-pattern-dotted{stroke-dasharray:2;}#mermaid-0 .marker{fill:#000000;stroke:#000000;}#mermaid-0 .marker.cross{stroke:#000000;}#mermaid-0 svg{font-family:"trebuchet ms",verdana,arial,sans-serif;font-size:16px;}#mermaid-0 .entityBox{fill:#cde498;stroke:#13540c;}#mermaid-0 .attributeBoxOdd{fill:#ffffff;stroke:#13540c;}#mermaid-0 .attributeBoxEven{fill:#f2f2f2;stroke:#13540c;}#mermaid-0 .relationshipLabelBox{fill:hsl(78.1578947368, 58.4615384615%, 84.5098039216%);opacity:0.7;background-color:hsl(78.1578947368, 58.4615384615%, 84.5098039216%);}#mermaid-0 .relationshipLabelBox rect{opacity:0.5;}#mermaid-0 .relationshipLine{stroke:#000000;}#mermaid-0 .entityTitleText{text-anchor:middle;font-size:18px;fill:#000000;}#mermaid-0 :root{--mermaid-font-family:"trebuchet ms",verdana,arial,sans-serif;}</style><g/><defs><marker orient="auto" markerHeight="18" markerWidth="18" refY="9" refX="0" id="ONLY_ONE_START"><path d="M9,0 L9,18 M15,0 L15,18" fill="none" stroke="gray"/></marker></defs><defs><marker orient="auto" markerHeight="18" markerWidth="18" refY="9" refX="18" id="ONLY_ONE_END"><path d="M3,0 L3,18 M9,0 L9,18" fill="none" stroke="gray"/></marker></defs><defs><marker orient="auto" markerHeight="18" markerWidth="30" refY="9" refX="0" id="ZERO_OR_ONE_START"><circle r="6" cy="9" cx="21" fill="white" stroke="gray"/><path d="M9,0 L9,18" fill="none" stroke="gray"/></marker></defs><defs><marker orient="auto" markerHeight="18" markerWidth="30" refY="9" refX="30" id="ZERO_OR_ONE_END"><circle r="6" cy="9" cx="9" fill="white" stroke="gray"/><path d="M21,0 L21,18" fill="none" stroke="gray"/></marker></defs><defs><marker orient="auto" markerHeight="36" markerWidth="45" refY="18" refX="18" id="ONE_OR_MORE_START"><path d="M0,18 Q 18,0 36,18 Q 18,36 0,18 M42,9 L42,27" fill="none" stroke="gray"/></marker></defs><defs><marker orient="auto" markerHeight="36" markerWidth="45" refY="18" refX="27" id="ONE_OR_MORE_END"><path d="M3,9 L3,27 M9,18 Q27,0 45,18 Q27,36 9,18" fill="none" stroke="gray"/></marker></defs><defs><marker orient="auto" markerHeight="36" markerWidth="57" refY="18" refX="18" id="ZERO_OR_MORE_START"><circle r="6" cy="18" cx="48" fill="white" stroke="gray"/><path d="M0,18 Q18,0 36,18 Q18,36 0,18" fill="none" stroke="gray"/></marker></defs><defs><marker orient="auto" markerHeight="36" markerWidth="57" refY="18" refX="39" id="ZERO_OR_MORE_END"><circle r="6" cy="18" cx="9" fill="white" stroke="gray"/><path d="M21,18 Q39,0 57,18 Q39,36 21,18" fill="none" stroke="gray"/></marker></defs><path style="stroke: gray; fill: none;" marker-start="url(#ZERO_OR_MORE_START)" marker-end="url(#ONLY_ONE_END)" d="M202.37289428710938,600L202.37289428710938,608.3333333333334C202.37289428710938,616.6666666666666,202.37289428710938,633.3333333333334,202.37289428710938,650C202.37289428710938,666.6666666666666,202.37289428710938,683.3333333333334,202.37289428710938,691.6666666666666L202.37289428710938,700" class="er relationshipLine"/><path style="stroke: gray; fill: none;" marker-start="url(#ZERO_OR_MORE_START)" marker-end="url(#ONLY_ONE_END)" d="M86.18644714355469,278L86.18644714355469,286.3333333333333C86.18644714355469,294.6666666666667,86.18644714355469,311.3333333333333,92.20023840357305,328C98.2140296635914,344.6666666666667,110.2416121836281,361.3333333333333,116.25540344364647,369.6666666666667L122.26919470366484,378" class="er relationshipLine"/><path style="stroke: gray; fill: none;" marker-start="url(#ZERO_OR_MORE_START)" marker-end="url(#ONLY_ONE_END)" d="M318.55934143066406,278L318.55934143066406,286.3333333333333C318.55934143066406,294.6666666666667,318.55934143066406,311.3333333333333,312.5455501706457,328C306.53175891062733,344.6666666666667,294.50417639059066,361.3333333333333,288.4903851305723,369.6666666666667L282.4765938705539,378" class="er relationshipLine"/><path style="stroke: gray; fill: none;" marker-start="url(#ZERO_OR_MORE_START)" marker-end="url(#ONLY_ONE_END)" d="M318.55934143066406,88L318.55934143066406,96.33333333333333C318.55934143066406,104.66666666666667,318.55934143066406,121.33333333333333,318.55934143066406,138C318.55934143066406,154.66666666666666,318.55934143066406,171.33333333333334,318.55934143066406,179.66666666666666L318.55934143066406,188" class="er relationshipLine"/><g transform="translate(124.7712173461914,700 )" id="entity-users-33ae1e26-be31-5c1d-bf65-e859e9d0308e"><rect height="134" width="155.20335388183594" y="0" x="0" class="er entityBox"/><text style="dominant-baseline: middle; text-anchor: middle; font-size: 12px;" transform="translate(77.60167694091797,12)" y="0" x="0" id="text-entity-users-33ae1e26-be31-5c1d-bf65-e859e9d0308e" class="er entityLabel">users</text><rect height="22" width="54.095550537109375" y="24" x="0" class="er attributeBoxOdd"/><text style="dominant-baseline: middle; font-size: 10.2px;" transform="translate(5,35)" y="0" x="0" id="text-entity-users-33ae1e26-be31-5c1d-bf65-e859e9d0308e-attr-1-type" class="er entityLabel">String</text><rect height="22" width="78.42012023925781" y="24" x="54.095550537109375" class="er attributeBoxOdd"/><text style="dominant-baseline: middle; font-size: 10.2px;" transform="translate(59.095550537109375,35)" y="0" x="0" id="text-entity-users-33ae1e26-be31-5c1d-bf65-e859e9d0308e-attr-1-name" class="er entityLabel">id</text><rect height="22" width="22.68768310546875" y="24" x="132.5156707763672" class="er attributeBoxOdd"/><text style="dominant-baseline: middle; font-size: 10.2px;" transform="translate(137.5156707763672,35)" y="0" x="0" id="text-entity-users-33ae1e26-be31-5c1d-bf65-e859e9d0308e-attr-1-key" class="er entityLabel">PK</text><rect height="22" width="54.095550537109375" y="46" x="0" class="er attributeBoxEven"/><text style="dominant-baseline: middle; font-size: 10.2px;" transform="translate(5,57)" y="0" x="0" id="text-entity-users-33ae1e26-be31-5c1d-bf65-e859e9d0308e-attr-2-type" class="er entityLabel">String</text><rect height="22" width="78.42012023925781" y="46" x="54.095550537109375" class="er attributeBoxEven"/><text style="dominant-baseline: middle; font-size: 10.2px;" transform="translate(59.095550537109375,57)" y="0" x="0" id="text-entity-users-33ae1e26-be31-5c1d-bf65-e859e9d0308e-attr-2-name" class="er entityLabel">name</text><rect height="22" width="22.68768310546875" y="46" x="132.5156707763672" class="er attributeBoxEven"/><text style="dominant-baseline: middle; font-size: 10.2px;" transform="translate(137.5156707763672,57)" y="0" x="0" id="text-entity-users-33ae1e26-be31-5c1d-bf65-e859e9d0308e-attr-2-key" class="er entityLabel"/><rect height="22" width="54.095550537109375" y="68" x="0" class="er attributeBoxOdd"/><text style="dominant-baseline: middle; font-size: 10.2px;" transform="translate(5,79)" y="0" x="0" id="text-entity-users-33ae1e26-be31-5c1d-bf65-e859e9d0308e-attr-3-type" class="er entityLabel">String</text><rect height="22" width="78.42012023925781" y="68" x="54.095550537109375" class="er attributeBoxOdd"/><text style="dominant-baseline: middle; font-size: 10.2px;" transform="translate(59.095550537109375,79)" y="0" x="0" id="text-entity-users-33ae1e26-be31-5c1d-bf65-e859e9d0308e-attr-3-name" class="er entityLabel">email</text><rect height="22" width="22.68768310546875" y="68" x="132.5156707763672" class="er attributeBoxOdd"/><text style="dominant-baseline: middle; font-size: 10.2px;" transform="translate(137.5156707763672,79)" y="0" x="0" id="text-entity-users-33ae1e26-be31-5c1d-bf65-e859e9d0308e-attr-3-key" class="er entityLabel"/><rect height="22" width="54.095550537109375" y="90" x="0" class="er attributeBoxEven"/><text style="dominant-baseline: middle; font-size: 10.2px;" transform="translate(5,101)" y="0" x="0" id="text-entity-users-33ae1e26-be31-5c1d-bf65-e859e9d0308e-attr-4-type" class="er entityLabel">String</text><rect height="22" width="78.42012023925781" y="90" x="54.095550537109375" class="er attributeBoxEven"/><text style="dominant-baseline: middle; font-size: 10.2px;" transform="translate(59.095550537109375,101)" y="0" x="0" id="text-entity-users-33ae1e26-be31-5c1d-bf65-e859e9d0308e-attr-4-name" class="er entityLabel">password_hash</text><rect height="22" width="22.68768310546875" y="90" x="132.5156707763672" class="er attributeBoxEven"/><text style="dominant-baseline: middle; font-size: 10.2px;" transform="translate(137.5156707763672,101)" y="0" x="0" id="text-entity-users-33ae1e26-be31-5c1d-bf65-e859e9d0308e-attr-4-key" class="er entityLabel"/><rect height="22" width="54.095550537109375" y="112" x="0" class="er attributeBoxOdd"/><text style="dominant-baseline: middle; font-size: 10.2px;" transform="translate(5,123)" y="0" x="0" id="text-entity-users-33ae1e26-be31-5c1d-bf65-e859e9d0308e-attr-5-type" class="er entityLabel">DateTime</text><rect height="22" width="78.42012023925781" y="112" x="54.095550537109375" class="er attributeBoxOdd"/><text style="dominant-baseline: middle; font-size: 10.2px;" transform="translate(59.095550537109375,123)" y="0" x="0" id="text-entity-users-33ae1e26-be31-5c1d-bf65-e859e9d0308e-attr-5-name" class="er entityLabel">created_at</text><rect height="22" width="22.68768310546875" y="112" x="132.5156707763672" class="er attributeBoxOdd"/><text style="dominant-baseline: middle; font-size: 10.2px;" transform="translate(137.5156707763672,123)" y="0" x="0" id="text-entity-users-33ae1e26-be31-5c1d-bf65-e859e9d0308e-attr-5-key" class="er entityLabel"/></g><g transform="translate(105.61943817138672,378 )" id="entity-recipes-a5ca788f-a331-5d10-85c8-bc4e94e9a03f"><rect height="222" width="193.5069122314453" y="0" x="0" class="er entityBox"/><text style="dominant-baseline: middle; text-anchor: middle; font-size: 12px;" transform="translate(96.75345611572266,12)" y="0" x="0" id="text-entity-recipes-a5ca788f-a331-5d10-85c8-bc4e94e9a03f" class="er entityLabel">recipes</text><rect height="22" width="54.095550537109375" y="24" x="0" class="er attributeBoxOdd"/><text style="dominant-baseline: middle; font-size: 10.2px;" transform="translate(5,35)" y="0" x="0" id="text-entity-recipes-a5ca788f-a331-5d10-85c8-bc4e94e9a03f-attr-1-type" class="er entityLabel">String</text><rect height="22" width="69.51113891601562" y="24" x="54.095550537109375" class="er attributeBoxOdd"/><text style="dominant-baseline: middle; font-size: 10.2px;" transform="translate(59.095550537109375,35)" y="0" x="0" id="text-entity-recipes-a5ca788f-a331-5d10-85c8-bc4e94e9a03f-attr-1-name" class="er entityLabel">id</text><rect height="22" width="22.68768310546875" y="24" x="123.606689453125" class="er attributeBoxOdd"/><text style="dominant-baseline: middle; font-size: 10.2px;" transform="translate(128.606689453125,35)" y="0" x="0" id="text-entity-recipes-a5ca788f-a331-5d10-85c8-bc4e94e9a03f-attr-1-key" class="er entityLabel">PK</text><rect height="22" width="47.21253967285156" y="24" x="146.29437255859375" class="er attributeBoxOdd"/><text style="dominant-baseline: middle; font-size: 10.2px;" transform="translate(151.29437255859375,35)" y="0" x="0" id="text-entity-recipes-a5ca788f-a331-5d10-85c8-bc4e94e9a03f-attr-1-comment" class="er entityLabel"/><rect height="22" width="54.095550537109375" y="46" x="0" class="er attributeBoxEven"/><text style="dominant-baseline: middle; font-size: 10.2px;" transform="translate(5,57)" y="0" x="0" id="text-entity-recipes-a5ca788f-a331-5d10-85c8-bc4e94e9a03f-attr-2-type" class="er entityLabel">String</text><rect height="22" width="69.51113891601562" y="46" x="54.095550537109375" class="er attributeBoxEven"/><text style="dominant-baseline: middle; font-size: 10.2px;" transform="translate(59.095550537109375,57)" y="0" x="0" id="text-entity-recipes-a5ca788f-a331-5d10-85c8-bc4e94e9a03f-attr-2-name" class="er entityLabel">name</text><rect height="22" width="22.68768310546875" y="46" x="123.606689453125" class="er attributeBoxEven"/><text style="dominant-baseline: middle; font-size: 10.2px;" transform="translate(128.606689453125,57)" y="0" x="0" id="text-entity-recipes-a5ca788f-a331-5d10-85c8-bc4e94e9a03f-attr-2-key" class="er entityLabel"/><rect height="22" width="47.21253967285156" y="46" x="146.29437255859375" class="er attributeBoxEven"/><text style="dominant-baseline: middle; font-size: 10.2px;" transform="translate(151.29437255859375,57)" y="0" x="0" id="text-entity-recipes-a5ca788f-a331-5d10-85c8-bc4e94e9a03f-attr-2-comment" class="er entityLabel"/><rect height="22" width="54.095550537109375" y="68" x="0" class="er attributeBoxOdd"/><text style="dominant-baseline: middle; font-size: 10.2px;" transform="translate(5,79)" y="0" x="0" id="text-entity-recipes-a5ca788f-a331-5d10-85c8-bc4e94e9a03f-attr-3-type" class="er entityLabel">String</text><rect height="22" width="69.51113891601562" y="68" x="54.095550537109375" class="er attributeBoxOdd"/><text style="dominant-baseline: middle; font-size: 10.2px;" transform="translate(59.095550537109375,79)" y="0" x="0" id="text-entity-recipes-a5ca788f-a331-5d10-85c8-bc4e94e9a03f-attr-3-name" class="er entityLabel">image_url</text><rect height="22" width="22.68768310546875" y="68" x="123.606689453125" class="er attributeBoxOdd"/><text style="dominant-baseline: middle; font-size: 10.2px;" transform="translate(128.606689453125,79)" y="0" x="0" id="text-entity-recipes-a5ca788f-a331-5d10-85c8-bc4e94e9a03f-attr-3-key" class="er entityLabel"/><rect height="22" width="47.21253967285156" y="68" x="146.29437255859375" class="er attributeBoxOdd"/><text style="dominant-baseline: middle; font-size: 10.2px;" transform="translate(151.29437255859375,79)" y="0" x="0" id="text-entity-recipes-a5ca788f-a331-5d10-85c8-bc4e94e9a03f-attr-3-comment" class="er entityLabel"/><rect height="22" width="54.095550537109375" y="90" x="0" class="er attributeBoxEven"/><text style="dominant-baseline: middle; font-size: 10.2px;" transform="translate(5,101)" y="0" x="0" id="text-entity-recipes-a5ca788f-a331-5d10-85c8-bc4e94e9a03f-attr-4-type" class="er entityLabel">String</text><rect height="22" width="69.51113891601562" y="90" x="54.095550537109375" class="er attributeBoxEven"/><text style="dominant-baseline: middle; font-size: 10.2px;" transform="translate(59.095550537109375,101)" y="0" x="0" id="text-entity-recipes-a5ca788f-a331-5d10-85c8-bc4e94e9a03f-attr-4-name" class="er entityLabel">description</text><rect height="22" width="22.68768310546875" y="90" x="123.606689453125" class="er attributeBoxEven"/><text style="dominant-baseline: middle; font-size: 10.2px;" transform="translate(128.606689453125,101)" y="0" x="0" id="text-entity-recipes-a5ca788f-a331-5d10-85c8-bc4e94e9a03f-attr-4-key" class="er entityLabel"/><rect height="22" width="47.21253967285156" y="90" x="146.29437255859375" class="er attributeBoxEven"/><text style="dominant-baseline: middle; font-size: 10.2px;" transform="translate(151.29437255859375,101)" y="0" x="0" id="text-entity-recipes-a5ca788f-a331-5d10-85c8-bc4e94e9a03f-attr-4-comment" class="er entityLabel"/><rect height="22" width="54.095550537109375" y="112" x="0" class="er attributeBoxOdd"/><text style="dominant-baseline: middle; font-size: 10.2px;" transform="translate(5,123)" y="0" x="0" id="text-entity-recipes-a5ca788f-a331-5d10-85c8-bc4e94e9a03f-attr-5-type" class="er entityLabel">String</text><rect height="22" width="69.51113891601562" y="112" x="54.095550537109375" class="er attributeBoxOdd"/><text style="dominant-baseline: middle; font-size: 10.2px;" transform="translate(59.095550537109375,123)" y="0" x="0" id="text-entity-recipes-a5ca788f-a331-5d10-85c8-bc4e94e9a03f-attr-5-name" class="er entityLabel">cookTime</text><rect height="22" width="22.68768310546875" y="112" x="123.606689453125" class="er attributeBoxOdd"/><text style="dominant-baseline: middle; font-size: 10.2px;" transform="translate(128.606689453125,123)" y="0" x="0" id="text-entity-recipes-a5ca788f-a331-5d10-85c8-bc4e94e9a03f-attr-5-key" class="er entityLabel"/><rect height="22" width="47.21253967285156" y="112" x="146.29437255859375" class="er attributeBoxOdd"/><text style="dominant-baseline: middle; font-size: 10.2px;" transform="translate(151.29437255859375,123)" y="0" x="0" id="text-entity-recipes-a5ca788f-a331-5d10-85c8-bc4e94e9a03f-attr-5-comment" class="er entityLabel"/><rect height="22" width="54.095550537109375" y="134" x="0" class="er attributeBoxEven"/><text style="dominant-baseline: middle; font-size: 10.2px;" transform="translate(5,145)" y="0" x="0" id="text-entity-recipes-a5ca788f-a331-5d10-85c8-bc4e94e9a03f-attr-6-type" class="er entityLabel">Int</text><rect height="22" width="69.51113891601562" y="134" x="54.095550537109375" class="er attributeBoxEven"/><text style="dominant-baseline: middle; font-size: 10.2px;" transform="translate(59.095550537109375,145)" y="0" x="0" id="text-entity-recipes-a5ca788f-a331-5d10-85c8-bc4e94e9a03f-attr-6-name" class="er entityLabel">serve_to</text><rect height="22" width="22.68768310546875" y="134" x="123.606689453125" class="er attributeBoxEven"/><text style="dominant-baseline: middle; font-size: 10.2px;" transform="translate(128.606689453125,145)" y="0" x="0" id="text-entity-recipes-a5ca788f-a331-5d10-85c8-bc4e94e9a03f-attr-6-key" class="er entityLabel"/><rect height="22" width="47.21253967285156" y="134" x="146.29437255859375" class="er attributeBoxEven"/><text style="dominant-baseline: middle; font-size: 10.2px;" transform="translate(151.29437255859375,145)" y="0" x="0" id="text-entity-recipes-a5ca788f-a331-5d10-85c8-bc4e94e9a03f-attr-6-comment" class="er entityLabel"/><rect height="22" width="54.095550537109375" y="156" x="0" class="er attributeBoxOdd"/><text style="dominant-baseline: middle; font-size: 10.2px;" transform="translate(5,167)" y="0" x="0" id="text-entity-recipes-a5ca788f-a331-5d10-85c8-bc4e94e9a03f-attr-7-type" class="er entityLabel">String</text><rect height="22" width="69.51113891601562" y="156" x="54.095550537109375" class="er attributeBoxOdd"/><text style="dominant-baseline: middle; font-size: 10.2px;" transform="translate(59.095550537109375,167)" y="0" x="0" id="text-entity-recipes-a5ca788f-a331-5d10-85c8-bc4e94e9a03f-attr-7-name" class="er entityLabel">origin</text><rect height="22" width="22.68768310546875" y="156" x="123.606689453125" class="er attributeBoxOdd"/><text style="dominant-baseline: middle; font-size: 10.2px;" transform="translate(128.606689453125,167)" y="0" x="0" id="text-entity-recipes-a5ca788f-a331-5d10-85c8-bc4e94e9a03f-attr-7-key" class="er entityLabel"/><rect height="22" width="47.21253967285156" y="156" x="146.29437255859375" class="er attributeBoxOdd"/><text style="dominant-baseline: middle; font-size: 10.2px;" transform="translate(151.29437255859375,167)" y="0" x="0" id="text-entity-recipes-a5ca788f-a331-5d10-85c8-bc4e94e9a03f-attr-7-comment" class="er entityLabel"/><rect height="22" width="54.095550537109375" y="178" x="0" class="er attributeBoxEven"/><text style="dominant-baseline: middle; font-size: 10.2px;" transform="translate(5,189)" y="0" x="0" id="text-entity-recipes-a5ca788f-a331-5d10-85c8-bc4e94e9a03f-attr-8-type" class="er entityLabel">DateTime</text><rect height="22" width="69.51113891601562" y="178" x="54.095550537109375" class="er attributeBoxEven"/><text style="dominant-baseline: middle; font-size: 10.2px;" transform="translate(59.095550537109375,189)" y="0" x="0" id="text-entity-recipes-a5ca788f-a331-5d10-85c8-bc4e94e9a03f-attr-8-name" class="er entityLabel">published_at</text><rect height="22" width="22.68768310546875" y="178" x="123.606689453125" class="er attributeBoxEven"/><text style="dominant-baseline: middle; font-size: 10.2px;" transform="translate(128.606689453125,189)" y="0" x="0" id="text-entity-recipes-a5ca788f-a331-5d10-85c8-bc4e94e9a03f-attr-8-key" class="er entityLabel"/><rect height="22" width="47.21253967285156" y="178" x="146.29437255859375" class="er attributeBoxEven"/><text style="dominant-baseline: middle; font-size: 10.2px;" transform="translate(151.29437255859375,189)" y="0" x="0" id="text-entity-recipes-a5ca788f-a331-5d10-85c8-bc4e94e9a03f-attr-8-comment" class="er entityLabel">nullable</text><rect height="22" width="54.095550537109375" y="200" x="0" class="er attributeBoxOdd"/><text style="dominant-baseline: middle; font-size: 10.2px;" transform="translate(5,211)" y="0" x="0" id="text-entity-recipes-a5ca788f-a331-5d10-85c8-bc4e94e9a03f-attr-9-type" class="er entityLabel">DateTime</text><rect height="22" width="69.51113891601562" y="200" x="54.095550537109375" class="er attributeBoxOdd"/><text style="dominant-baseline: middle; font-size: 10.2px;" transform="translate(59.095550537109375,211)" y="0" x="0" id="text-entity-recipes-a5ca788f-a331-5d10-85c8-bc4e94e9a03f-attr-9-name" class="er entityLabel">created_at</text><rect height="22" width="22.68768310546875" y="200" x="123.606689453125" class="er attributeBoxOdd"/><text style="dominant-baseline: middle; font-size: 10.2px;" transform="translate(128.606689453125,211)" y="0" x="0" id="text-entity-recipes-a5ca788f-a331-5d10-85c8-bc4e94e9a03f-attr-9-key" class="er entityLabel"/><rect height="22" width="47.21253967285156" y="200" x="146.29437255859375" class="er attributeBoxOdd"/><text style="dominant-baseline: middle; font-size: 10.2px;" transform="translate(151.29437255859375,211)" y="0" x="0" id="text-entity-recipes-a5ca788f-a331-5d10-85c8-bc4e94e9a03f-attr-9-comment" class="er entityLabel"/></g><g transform="translate(20,188 )" id="entity-ingredients-dfe1a7c5-69b2-5c12-85c0-2b122290a70f"><rect height="90" width="132.37289428710938" y="0" x="0" class="er entityBox"/><text style="dominant-baseline: middle; text-anchor: middle; font-size: 12px;" transform="translate(66.18644714355469,12)" y="0" x="0" id="text-entity-ingredients-dfe1a7c5-69b2-5c12-85c0-2b122290a70f" class="er entityLabel">ingredients</text><rect height="22" width="37.39605712890625" y="24" x="0" class="er attributeBoxOdd"/><text style="dominant-baseline: middle; font-size: 10.2px;" transform="translate(5,35)" y="0" x="0" id="text-entity-ingredients-dfe1a7c5-69b2-5c12-85c0-2b122290a70f-attr-1-type" class="er entityLabel">String</text><rect height="22" width="72.28915405273438" y="24" x="37.39605712890625" class="er attributeBoxOdd"/><text style="dominant-baseline: middle; font-size: 10.2px;" transform="translate(42.39605712890625,35)" y="0" x="0" id="text-entity-ingredients-dfe1a7c5-69b2-5c12-85c0-2b122290a70f-attr-1-name" class="er entityLabel">id</text><rect height="22" width="22.68768310546875" y="24" x="109.68521118164062" class="er attributeBoxOdd"/><text style="dominant-baseline: middle; font-size: 10.2px;" transform="translate(114.68521118164062,35)" y="0" x="0" id="text-entity-ingredients-dfe1a7c5-69b2-5c12-85c0-2b122290a70f-attr-1-key" class="er entityLabel">PK</text><rect height="22" width="37.39605712890625" y="46" x="0" class="er attributeBoxEven"/><text style="dominant-baseline: middle; font-size: 10.2px;" transform="translate(5,57)" y="0" x="0" id="text-entity-ingredients-dfe1a7c5-69b2-5c12-85c0-2b122290a70f-attr-2-type" class="er entityLabel">String</text><rect height="22" width="72.28915405273438" y="46" x="37.39605712890625" class="er attributeBoxEven"/><text style="dominant-baseline: middle; font-size: 10.2px;" transform="translate(42.39605712890625,57)" y="0" x="0" id="text-entity-ingredients-dfe1a7c5-69b2-5c12-85c0-2b122290a70f-attr-2-name" class="er entityLabel">name</text><rect height="22" width="22.68768310546875" y="46" x="109.68521118164062" class="er attributeBoxEven"/><text style="dominant-baseline: middle; font-size: 10.2px;" transform="translate(114.68521118164062,57)" y="0" x="0" id="text-entity-ingredients-dfe1a7c5-69b2-5c12-85c0-2b122290a70f-attr-2-key" class="er entityLabel"/><rect height="22" width="37.39605712890625" y="68" x="0" class="er attributeBoxOdd"/><text style="dominant-baseline: middle; font-size: 10.2px;" transform="translate(5,79)" y="0" x="0" id="text-entity-ingredients-dfe1a7c5-69b2-5c12-85c0-2b122290a70f-attr-3-type" class="er entityLabel">Int</text><rect height="22" width="72.28915405273438" y="68" x="37.39605712890625" class="er attributeBoxOdd"/><text style="dominant-baseline: middle; font-size: 10.2px;" transform="translate(42.39605712890625,79)" y="0" x="0" id="text-entity-ingredients-dfe1a7c5-69b2-5c12-85c0-2b122290a70f-attr-3-name" class="er entityLabel">sorting_index</text><rect height="22" width="22.68768310546875" y="68" x="109.68521118164062" class="er attributeBoxOdd"/><text style="dominant-baseline: middle; font-size: 10.2px;" transform="translate(114.68521118164062,79)" y="0" x="0" id="text-entity-ingredients-dfe1a7c5-69b2-5c12-85c0-2b122290a70f-attr-3-key" class="er entityLabel"/></g><g transform="translate(252.37289428710938,188 )" id="entity-instructions-5795d2fb-3a34-5547-9eaf-cf482790a572"><rect height="90" width="132.37289428710938" y="0" x="0" class="er entityBox"/><text style="dominant-baseline: middle; text-anchor: middle; font-size: 12px;" transform="translate(66.18644714355469,12)" y="0" x="0" id="text-entity-instructions-5795d2fb-3a34-5547-9eaf-cf482790a572" class="er entityLabel">instructions</text><rect height="22" width="37.39605712890625" y="24" x="0" class="er attributeBoxOdd"/><text style="dominant-baseline: middle; font-size: 10.2px;" transform="translate(5,35)" y="0" x="0" id="text-entity-instructions-5795d2fb-3a34-5547-9eaf-cf482790a572-attr-1-type" class="er entityLabel">String</text><rect height="22" width="72.28915405273438" y="24" x="37.39605712890625" class="er attributeBoxOdd"/><text style="dominant-baseline: middle; font-size: 10.2px;" transform="translate(42.39605712890625,35)" y="0" x="0" id="text-entity-instructions-5795d2fb-3a34-5547-9eaf-cf482790a572-attr-1-name" class="er entityLabel">id</text><rect height="22" width="22.68768310546875" y="24" x="109.68521118164062" class="er attributeBoxOdd"/><text style="dominant-baseline: middle; font-size: 10.2px;" transform="translate(114.68521118164062,35)" y="0" x="0" id="text-entity-instructions-5795d2fb-3a34-5547-9eaf-cf482790a572-attr-1-key" class="er entityLabel">PK</text><rect height="22" width="37.39605712890625" y="46" x="0" class="er attributeBoxEven"/><text style="dominant-baseline: middle; font-size: 10.2px;" transform="translate(5,57)" y="0" x="0" id="text-entity-instructions-5795d2fb-3a34-5547-9eaf-cf482790a572-attr-2-type" class="er entityLabel">String</text><rect height="22" width="72.28915405273438" y="46" x="37.39605712890625" class="er attributeBoxEven"/><text style="dominant-baseline: middle; font-size: 10.2px;" transform="translate(42.39605712890625,57)" y="0" x="0" id="text-entity-instructions-5795d2fb-3a34-5547-9eaf-cf482790a572-attr-2-name" class="er entityLabel">description</text><rect height="22" width="22.68768310546875" y="46" x="109.68521118164062" class="er attributeBoxEven"/><text style="dominant-baseline: middle; font-size: 10.2px;" transform="translate(114.68521118164062,57)" y="0" x="0" id="text-entity-instructions-5795d2fb-3a34-5547-9eaf-cf482790a572-attr-2-key" class="er entityLabel"/><rect height="22" width="37.39605712890625" y="68" x="0" class="er attributeBoxOdd"/><text style="dominant-baseline: middle; font-size: 10.2px;" transform="translate(5,79)" y="0" x="0" id="text-entity-instructions-5795d2fb-3a34-5547-9eaf-cf482790a572-attr-3-type" class="er entityLabel">Int</text><rect height="22" width="72.28915405273438" y="68" x="37.39605712890625" class="er attributeBoxOdd"/><text style="dominant-baseline: middle; font-size: 10.2px;" transform="translate(42.39605712890625,79)" y="0" x="0" id="text-entity-instructions-5795d2fb-3a34-5547-9eaf-cf482790a572-attr-3-name" class="er entityLabel">sorting_index</text><rect height="22" width="22.68768310546875" y="68" x="109.68521118164062" class="er attributeBoxOdd"/><text style="dominant-baseline: middle; font-size: 10.2px;" transform="translate(114.68521118164062,79)" y="0" x="0" id="text-entity-instructions-5795d2fb-3a34-5547-9eaf-cf482790a572-attr-3-key" class="er entityLabel"/></g><g transform="translate(250.39039611816406,20 )" id="entity-instructionsimages-578cc592-500c-5f68-aa4d-de4c59a0134f"><rect height="68" width="136.337890625" y="0" x="0" class="er entityBox"/><text style="dominant-baseline: middle; text-anchor: middle; font-size: 12px;" transform="translate(68.1689453125,12)" y="0" x="0" id="text-entity-instructionsimages-578cc592-500c-5f68-aa4d-de4c59a0134f" class="er entityLabel">instructions_images</text><rect height="22" width="44.376607259114586" y="24" x="0" class="er attributeBoxOdd"/><text style="dominant-baseline: middle; font-size: 10.2px;" transform="translate(5,35)" y="0" x="0" id="text-entity-instructionsimages-578cc592-500c-5f68-aa4d-de4c59a0134f-attr-1-type" class="er entityLabel">String</text><rect height="22" width="62.293050130208336" y="24" x="44.376607259114586" class="er attributeBoxOdd"/><text style="dominant-baseline: middle; font-size: 10.2px;" transform="translate(49.376607259114586,35)" y="0" x="0" id="text-entity-instructionsimages-578cc592-500c-5f68-aa4d-de4c59a0134f-attr-1-name" class="er entityLabel">id</text><rect height="22" width="29.668233235677082" y="24" x="106.66965738932292" class="er attributeBoxOdd"/><text style="dominant-baseline: middle; font-size: 10.2px;" transform="translate(111.66965738932292,35)" y="0" x="0" id="text-entity-instructionsimages-578cc592-500c-5f68-aa4d-de4c59a0134f-attr-1-key" class="er entityLabel">PK</text><rect height="22" width="44.376607259114586" y="46" x="0" class="er attributeBoxEven"/><text style="dominant-baseline: middle; font-size: 10.2px;" transform="translate(5,57)" y="0" x="0" id="text-entity-instructionsimages-578cc592-500c-5f68-aa4d-de4c59a0134f-attr-2-type" class="er entityLabel">String</text><rect height="22" width="62.293050130208336" y="46" x="44.376607259114586" class="er attributeBoxEven"/><text style="dominant-baseline: middle; font-size: 10.2px;" transform="translate(49.376607259114586,57)" y="0" x="0" id="text-entity-instructionsimages-578cc592-500c-5f68-aa4d-de4c59a0134f-attr-2-name" class="er entityLabel">image_url</text><rect height="22" width="29.668233235677082" y="46" x="106.66965738932292" class="er attributeBoxEven"/><text style="dominant-baseline: middle; font-size: 10.2px;" transform="translate(111.66965738932292,57)" y="0" x="0" id="text-entity-instructionsimages-578cc592-500c-5f68-aa4d-de4c59a0134f-attr-2-key" class="er entityLabel"/></g><rect height="14" width="23.958984375" y="643" x="190.39340209960938" class="er relationshipLabelBox"/><text style="text-anchor: middle; dominant-baseline: middle; font-size: 12px;" y="650" x="202.37289428710938" id="rel1" class="er relationshipLabel">user</text><rect height="14" width="34.2578125" y="324.6779479980469" x="76.4928970336914" class="er relationshipLabelBox"/><text style="text-anchor: middle; dominant-baseline: middle; font-size: 12px;" y="331.6779479980469" x="93.6218032836914" id="rel2" class="er relationshipLabel">recipe</text><rect height="14" width="34.2578125" y="324.6779479980469" x="293.9950866699219" class="er relationshipLabelBox"/><text style="text-anchor: middle; dominant-baseline: middle; font-size: 12px;" y="331.6779479980469" x="311.1239929199219" id="rel3" class="er relationshipLabel">recipe</text><rect height="14" width="58.375" y="131" x="289.3718566894531" class="er relationshipLabelBox"/><text style="text-anchor: middle; dominant-baseline: middle; font-size: 12px;" y="138" x="318.5593566894531" id="rel4" class="er relationshipLabel">instruction</text></svg>