<svg aria-roledescription="er" role="graphics-document document" viewBox="0 0 368.91424560546875 832" style="max-width: 368.914px; background-color: white;" xmlns:xlink="http://www.w3.org/1999/xlink" xmlns="http://www.w3.org/2000/svg" width="100%" id="mermaid-0"><style>#mermaid-0{font-family:"trebuchet ms",verdana,arial,sans-serif;font-size:16px;fill:#000000;}#mermaid-0 .error-icon{fill:#552222;}#mermaid-0 .error-text{fill:#552222;stroke:#552222;}#mermaid-0 .edge-thickness-normal{stroke-width:2px;}#mermaid-0 .edge-thickness-thick{stroke-width:3.5px;}#mermaid-0 .edge-pattern-solid{stroke-dasharray:0;}#mermaid-0 .edge-pattern-dashed{stroke-dasharray:3;}#mermaid-0 .edge-pattern-dotted{stroke-dasharray:2;}#mermaid-0 .marker{fill:#000000;stroke:#000000;}#mermaid-0 .marker.cross{stroke:#000000;}#mermaid-0 svg{font-family:"trebuchet ms",verdana,arial,sans-serif;font-size:16px;}#mermaid-0 .entityBox{fill:#cde498;stroke:#13540c;}#mermaid-0 .attributeBoxOdd{fill:#ffffff;stroke:#13540c;}#mermaid-0 .attributeBoxEven{fill:#f2f2f2;stroke:#13540c;}#mermaid-0 .relationshipLabelBox{fill:hsl(78.1578947368, 58.4615384615%, 84.5098039216%);opacity:0.7;background-color:hsl(78.1578947368, 58.4615384615%, 84.5098039216%);}#mermaid-0 .relationshipLabelBox rect{opacity:0.5;}#mermaid-0 .relationshipLine{stroke:#000000;}#mermaid-0 .entityTitleText{text-anchor:middle;font-size:18px;fill:#000000;}#mermaid-0 :root{--mermaid-font-family:"trebuchet ms",verdana,arial,sans-serif;}</style><g/><defs><marker orient="auto" markerHeight="18" markerWidth="18" refY="9" refX="0" id="ONLY_ONE_START"><path d="M9,0 L9,18 M15,0 L15,18" fill="none" stroke="gray"/></marker></defs><defs><marker orient="auto" markerHeight="18" markerWidth="18" refY="9" refX="18" id="ONLY_ONE_END"><path d="M3,0 L3,18 M9,0 L9,18" fill="none" stroke="gray"/></marker></defs><defs><marker orient="auto" markerHeight="18" markerWidth="30" refY="9" refX="0" id="ZERO_OR_ONE_START"><circle r="6" cy="9" cx="21" fill="white" stroke="gray"/><path d="M9,0 L9,18" fill="none" stroke="gray"/></marker></defs><defs><marker orient="auto" markerHeight="18" markerWidth="30" refY="9" refX="30" id="ZERO_OR_ONE_END"><circle r="6" cy="9" cx="9" fill="white" stroke="gray"/><path d="M21,0 L21,18" fill="none" stroke="gray"/></marker></defs><defs><marker orient="auto" markerHeight="36" markerWidth="45" refY="18" refX="18" id="ONE_OR_MORE_START"><path d="M0,18 Q 18,0 36,18 Q 18,36 0,18 M42,9 L42,27" fill="none" stroke="gray"/></marker></defs><defs><marker orient="auto" markerHeight="36" markerWidth="45" refY="18" refX="27" id="ONE_OR_MORE_END"><path d="M3,9 L3,27 M9,18 Q27,0 45,18 Q27,36 9,18" fill="none" stroke="gray"/></marker></defs><defs><marker orient="auto" markerHeight="36" markerWidth="57" refY="18" refX="18" id="ZERO_OR_MORE_START"><circle r="6" cy="18" cx="48" fill="white" stroke="gray"/><path d="M0,18 Q18,0 36,18 Q18,36 0,18" fill="none" stroke="gray"/></marker></defs><defs><marker orient="auto" markerHeight="36" markerWidth="57" refY="18" refX="39" id="ZERO_OR_MORE_END"><circle r="6" cy="18" cx="9" fill="white" stroke="gray"/><path d="M21,18 Q39,0 57,18 Q39,36 21,18" fill="none" stroke="gray"/></marker></defs><path style="stroke: gray; fill: none;" marker-start="url(#ZERO_OR_MORE_START)" marker-end="url(#ONLY_ONE_END)" d="M175.3726463317871,578L175.3726463317871,586.3333333333334C175.3726463317871,594.6666666666666,175.3726463317871,611.3333333333334,175.3726463317871,628C175.3726463317871,644.6666666666666,175.3726463317871,661.3333333333334,175.3726463317871,669.6666666666666L175.3726463317871,678" class="er relationshipLine"/><path style="stroke: gray; fill: none;" marker-start="url(#ZERO_OR_MORE_START)" marker-end="url(#ONLY_ONE_END)" d="M70,256L70,264.3333333333333C70,272.6666666666667,70,289.3333333333333,75.45407072110699,306C80.90814144221399,322.6666666666667,91.81628288442796,339.3333333333333,97.27035360553498,347.6666666666667L102.72442432664197,356" class="er relationshipLine"/><path style="stroke: gray; fill: none;" marker-start="url(#ZERO_OR_MORE_START)" marker-end="url(#ONLY_ONE_END)" d="M280.7452926635742,256L280.7452926635742,264.3333333333333C280.7452926635742,272.6666666666667,280.7452926635742,289.3333333333333,275.29122194246725,306C269.8371512213602,322.6666666666667,258.92900977914627,339.3333333333333,253.47493905803927,347.6666666666667L248.02086833693227,356" class="er relationshipLine"/><path style="stroke: gray; fill: none;" marker-start="url(#ZERO_OR_MORE_START)" marker-end="url(#ONLY_ONE_END)" d="M280.7452926635742,88L280.7452926635742,96.33333333333333C280.7452926635742,104.66666666666667,280.7452926635742,121.33333333333333,280.7452926635742,138C280.7452926635742,154.66666666666666,280.7452926635742,171.33333333333334,280.7452926635742,179.66666666666666L280.7452926635742,188" class="er relationshipLine"/><g transform="translate(97.77096939086914,678 )" id="entity-users-33ae1e26-be31-5c1d-bf65-e859e9d0308e"><rect height="134" width="155.20335388183594" y="0" x="0" class="er entityBox"/><text style="dominant-baseline: middle; text-anchor: middle; font-size: 12px;" transform="translate(77.60167694091797,12)" y="0" x="0" id="text-entity-users-33ae1e26-be31-5c1d-bf65-e859e9d0308e" class="er entityLabel">users</text><rect height="22" width="54.095550537109375" y="24" x="0" class="er attributeBoxOdd"/><text style="dominant-baseline: middle; font-size: 10.2px;" transform="translate(5,35)" y="0" x="0" id="text-entity-users-33ae1e26-be31-5c1d-bf65-e859e9d0308e-attr-1-type" class="er entityLabel">String</text><rect height="22" width="78.42012023925781" y="24" x="54.095550537109375" class="er attributeBoxOdd"/><text style="dominant-baseline: middle; font-size: 10.2px;" transform="translate(59.095550537109375,35)" y="0" x="0" id="text-entity-users-33ae1e26-be31-5c1d-bf65-e859e9d0308e-attr-1-name" class="er entityLabel">id</text><rect height="22" width="22.68768310546875" y="24" x="132.5156707763672" class="er attributeBoxOdd"/><text style="dominant-baseline: middle; font-size: 10.2px;" transform="translate(137.5156707763672,35)" y="0" x="0" id="text-entity-users-33ae1e26-be31-5c1d-bf65-e859e9d0308e-attr-1-key" class="er entityLabel">PK</text><rect height="22" width="54.095550537109375" y="46" x="0" class="er attributeBoxEven"/><text style="dominant-baseline: middle; font-size: 10.2px;" transform="translate(5,57)" y="0" x="0" id="text-entity-users-33ae1e26-be31-5c1d-bf65-e859e9d0308e-attr-2-type" class="er entityLabel">String</text><rect height="22" width="78.42012023925781" y="46" x="54.095550537109375" class="er attributeBoxEven"/><text style="dominant-baseline: middle; font-size: 10.2px;" transform="translate(59.095550537109375,57)" y="0" x="0" id="text-entity-users-33ae1e26-be31-5c1d-bf65-e859e9d0308e-attr-2-name" class="er entityLabel">name</text><rect height="22" width="22.68768310546875" y="46" x="132.5156707763672" class="er attributeBoxEven"/><text style="dominant-baseline: middle; font-size: 10.2px;" transform="translate(137.5156707763672,57)" y="0" x="0" id="text-entity-users-33ae1e26-be31-5c1d-bf65-e859e9d0308e-attr-2-key" class="er entityLabel"/><rect height="22" width="54.095550537109375" y="68" x="0" class="er attributeBoxOdd"/><text style="dominant-baseline: middle; font-size: 10.2px;" transform="translate(5,79)" y="0" x="0" id="text-entity-users-33ae1e26-be31-5c1d-bf65-e859e9d0308e-attr-3-type" class="er entityLabel">String</text><rect height="22" width="78.42012023925781" y="68" x="54.095550537109375" class="er attributeBoxOdd"/><text style="dominant-baseline: middle; font-size: 10.2px;" transform="translate(59.095550537109375,79)" y="0" x="0" id="text-entity-users-33ae1e26-be31-5c1d-bf65-e859e9d0308e-attr-3-name" class="er entityLabel">email</text><rect height="22" width="22.68768310546875" y="68" x="132.5156707763672" class="er attributeBoxOdd"/><text style="dominant-baseline: middle; font-size: 10.2px;" transform="translate(137.5156707763672,79)" y="0" x="0" id="text-entity-users-33ae1e26-be31-5c1d-bf65-e859e9d0308e-attr-3-key" class="er entityLabel"/><rect height="22" width="54.095550537109375" y="90" x="0" class="er attributeBoxEven"/><text style="dominant-baseline: middle; font-size: 10.2px;" transform="translate(5,101)" y="0" x="0" id="text-entity-users-33ae1e26-be31-5c1d-bf65-e859e9d0308e-attr-4-type" class="er entityLabel">String</text><rect height="22" width="78.42012023925781" y="90" x="54.095550537109375" class="er attributeBoxEven"/><text style="dominant-baseline: middle; font-size: 10.2px;" transform="translate(59.095550537109375,101)" y="0" x="0" id="text-entity-users-33ae1e26-be31-5c1d-bf65-e859e9d0308e-attr-4-name" class="er entityLabel">password_hash</text><rect height="22" width="22.68768310546875" y="90" x="132.5156707763672" class="er attributeBoxEven"/><text style="dominant-baseline: middle; font-size: 10.2px;" transform="translate(137.5156707763672,101)" y="0" x="0" id="text-entity-users-33ae1e26-be31-5c1d-bf65-e859e9d0308e-attr-4-key" class="er entityLabel"/><rect height="22" width="54.095550537109375" y="112" x="0" class="er attributeBoxOdd"/><text style="dominant-baseline: middle; font-size: 10.2px;" transform="translate(5,123)" y="0" x="0" id="text-entity-users-33ae1e26-be31-5c1d-bf65-e859e9d0308e-attr-5-type" class="er entityLabel">DateTime</text><rect height="22" width="78.42012023925781" y="112" x="54.095550537109375" class="er attributeBoxOdd"/><text style="dominant-baseline: middle; font-size: 10.2px;" transform="translate(59.095550537109375,123)" y="0" x="0" id="text-entity-users-33ae1e26-be31-5c1d-bf65-e859e9d0308e-attr-5-name" class="er entityLabel">created_at</text><rect height="22" width="22.68768310546875" y="112" x="132.5156707763672" class="er attributeBoxOdd"/><text style="dominant-baseline: middle; font-size: 10.2px;" transform="translate(137.5156707763672,123)" y="0" x="0" id="text-entity-users-33ae1e26-be31-5c1d-bf65-e859e9d0308e-attr-5-key" class="er entityLabel"/></g><g transform="translate(78.61919021606445,356 )" id="entity-recipes-a5ca788f-a331-5d10-85c8-bc4e94e9a03f"><rect height="222" width="193.5069122314453" y="0" x="0" class="er entityBox"/><text style="dominant-baseline: middle; text-anchor: middle; font-size: 12px;" transform="translate(96.75345611572266,12)" y="0" x="0" id="text-entity-recipes-a5ca788f-a331-5d10-85c8-bc4e94e9a03f" class="er entityLabel">recipes</text><rect height="22" width="54.095550537109375" y="24" x="0" class="er attributeBoxOdd"/><text style="dominant-baseline: middle; font-size: 10.2px;" transform="translate(5,35)" y="0" x="0" id="text-entity-recipes-a5ca788f-a331-5d10-85c8-bc4e94e9a03f-attr-1-type" class="er entityLabel">String</text><rect height="22" width="69.51113891601562" y="24" x="54.095550537109375" class="er attributeBoxOdd"/><text style="dominant-baseline: middle; font-size: 10.2px;" transform="translate(59.095550537109375,35)" y="0" x="0" id="text-entity-recipes-a5ca788f-a331-5d10-85c8-bc4e94e9a03f-attr-1-name" class="er entityLabel">id</text><rect height="22" width="22.68768310546875" y="24" x="123.606689453125" class="er attributeBoxOdd"/><text style="dominant-baseline: middle; font-size: 10.2px;" transform="translate(128.606689453125,35)" y="0" x="0" id="text-entity-recipes-a5ca788f-a331-5d10-85c8-bc4e94e9a03f-attr-1-key" class="er entityLabel">PK</text><rect height="22" width="47.21253967285156" y="24" x="146.29437255859375" class="er attributeBoxOdd"/><text style="dominant-baseline: middle; font-size: 10.2px;" transform="translate(151.29437255859375,35)" y="0" x="0" id="text-entity-recipes-a5ca788f-a331-5d10-85c8-bc4e94e9a03f-attr-1-comment" class="er entityLabel"/><rect height="22" width="54.095550537109375" y="46" x="0" class="er attributeBoxEven"/><text style="dominant-baseline: middle; font-size: 10.2px;" transform="translate(5,57)" y="0" x="0" id="text-entity-recipes-a5ca788f-a331-5d10-85c8-bc4e94e9a03f-attr-2-type" class="er entityLabel">String</text><rect height="22" width="69.51113891601562" y="46" x="54.095550537109375" class="er attributeBoxEven"/><text style="dominant-baseline: middle; font-size: 10.2px;" transform="translate(59.095550537109375,57)" y="0" x="0" id="text-entity-recipes-a5ca788f-a331-5d10-85c8-bc4e94e9a03f-attr-2-name" class="er entityLabel">title</text><rect height="22" width="22.68768310546875" y="46" x="123.606689453125" class="er attributeBoxEven"/><text style="dominant-baseline: middle; font-size: 10.2px;" transform="translate(128.606689453125,57)" y="0" x="0" id="text-entity-recipes-a5ca788f-a331-5d10-85c8-bc4e94e9a03f-attr-2-key" class="er entityLabel"/><rect height="22" width="47.21253967285156" y="46" x="146.29437255859375" class="er attributeBoxEven"/><text style="dominant-baseline: middle; font-size: 10.2px;" transform="translate(151.29437255859375,57)" y="0" x="0" id="text-entity-recipes-a5ca788f-a331-5d10-85c8-bc4e94e9a03f-attr-2-comment" class="er entityLabel"/><rect height="22" width="54.095550537109375" y="68" x="0" class="er attributeBoxOdd"/><text style="dominant-baseline: middle; font-size: 10.2px;" transform="translate(5,79)" y="0" x="0" id="text-entity-recipes-a5ca788f-a331-5d10-85c8-bc4e94e9a03f-attr-3-type" class="er entityLabel">String</text><rect height="22" width="69.51113891601562" y="68" x="54.095550537109375" class="er attributeBoxOdd"/><text style="dominant-baseline: middle; font-size: 10.2px;" transform="translate(59.095550537109375,79)" y="0" x="0" id="text-entity-recipes-a5ca788f-a331-5d10-85c8-bc4e94e9a03f-attr-3-name" class="er entityLabel">image_url</text><rect height="22" width="22.68768310546875" y="68" x="123.606689453125" class="er attributeBoxOdd"/><text style="dominant-baseline: middle; font-size: 10.2px;" transform="translate(128.606689453125,79)" y="0" x="0" id="text-entity-recipes-a5ca788f-a331-5d10-85c8-bc4e94e9a03f-attr-3-key" class="er entityLabel"/><rect height="22" width="47.21253967285156" y="68" x="146.29437255859375" class="er attributeBoxOdd"/><text style="dominant-baseline: middle; font-size: 10.2px;" transform="translate(151.29437255859375,79)" y="0" x="0" id="text-entity-recipes-a5ca788f-a331-5d10-85c8-bc4e94e9a03f-attr-3-comment" class="er entityLabel"/><rect height="22" width="54.095550537109375" y="90" x="0" class="er attributeBoxEven"/><text style="dominant-baseline: middle; font-size: 10.2px;" transform="translate(5,101)" y="0" x="0" id="text-entity-recipes-a5ca788f-a331-5d10-85c8-bc4e94e9a03f-attr-4-type" class="er entityLabel">String</text><rect height="22" width="69.51113891601562" y="90" x="54.095550537109375" class="er attributeBoxEven"/><text style="dominant-baseline: middle; font-size: 10.2px;" transform="translate(59.095550537109375,101)" y="0" x="0" id="text-entity-recipes-a5ca788f-a331-5d10-85c8-bc4e94e9a03f-attr-4-name" class="er entityLabel">description</text><rect height="22" width="22.68768310546875" y="90" x="123.606689453125" class="er attributeBoxEven"/><text style="dominant-baseline: middle; font-size: 10.2px;" transform="translate(128.606689453125,101)" y="0" x="0" id="text-entity-recipes-a5ca788f-a331-5d10-85c8-bc4e94e9a03f-attr-4-key" class="er entityLabel"/><rect height="22" width="47.21253967285156" y="90" x="146.29437255859375" class="er attributeBoxEven"/><text style="dominant-baseline: middle; font-size: 10.2px;" transform="translate(151.29437255859375,101)" y="0" x="0" id="text-entity-recipes-a5ca788f-a331-5d10-85c8-bc4e94e9a03f-attr-4-comment" class="er entityLabel"/><rect height="22" width="54.095550537109375" y="112" x="0" class="er attributeBoxOdd"/><text style="dominant-baseline: middle; font-size: 10.2px;" transform="translate(5,123)" y="0" x="0" id="text-entity-recipes-a5ca788f-a331-5d10-85c8-bc4e94e9a03f-attr-5-type" class="er entityLabel">String</text><rect height="22" width="69.51113891601562" y="112" x="54.095550537109375" class="er attributeBoxOdd"/><text style="dominant-baseline: middle; font-size: 10.2px;" transform="translate(59.095550537109375,123)" y="0" x="0" id="text-entity-recipes-a5ca788f-a331-5d10-85c8-bc4e94e9a03f-attr-5-name" class="er entityLabel">cookTime</text><rect height="22" width="22.68768310546875" y="112" x="123.606689453125" class="er attributeBoxOdd"/><text style="dominant-baseline: middle; font-size: 10.2px;" transform="translate(128.606689453125,123)" y="0" x="0" id="text-entity-recipes-a5ca788f-a331-5d10-85c8-bc4e94e9a03f-attr-5-key" class="er entityLabel"/><rect height="22" width="47.21253967285156" y="112" x="146.29437255859375" class="er attributeBoxOdd"/><text style="dominant-baseline: middle; font-size: 10.2px;" transform="translate(151.29437255859375,123)" y="0" x="0" id="text-entity-recipes-a5ca788f-a331-5d10-85c8-bc4e94e9a03f-attr-5-comment" class="er entityLabel"/><rect height="22" width="54.095550537109375" y="134" x="0" class="er attributeBoxEven"/><text style="dominant-baseline: middle; font-size: 10.2px;" transform="translate(5,145)" y="0" x="0" id="text-entity-recipes-a5ca788f-a331-5d10-85c8-bc4e94e9a03f-attr-6-type" class="er entityLabel">Int</text><rect height="22" width="69.51113891601562" y="134" x="54.095550537109375" class="er attributeBoxEven"/><text style="dominant-baseline: middle; font-size: 10.2px;" transform="translate(59.095550537109375,145)" y="0" x="0" id="text-entity-recipes-a5ca788f-a331-5d10-85c8-bc4e94e9a03f-attr-6-name" class="er entityLabel">serve_to</text><rect height="22" width="22.68768310546875" y="134" x="123.606689453125" class="er attributeBoxEven"/><text style="dominant-baseline: middle; font-size: 10.2px;" transform="translate(128.606689453125,145)" y="0" x="0" id="text-entity-recipes-a5ca788f-a331-5d10-85c8-bc4e94e9a03f-attr-6-key" class="er entityLabel"/><rect height="22" width="47.21253967285156" y="134" x="146.29437255859375" class="er attributeBoxEven"/><text style="dominant-baseline: middle; font-size: 10.2px;" transform="translate(151.29437255859375,145)" y="0" x="0" id="text-entity-recipes-a5ca788f-a331-5d10-85c8-bc4e94e9a03f-attr-6-comment" class="er entityLabel"/><rect height="22" width="54.095550537109375" y="156" x="0" class="er attributeBoxOdd"/><text style="dominant-baseline: middle; font-size: 10.2px;" transform="translate(5,167)" y="0" x="0" id="text-entity-recipes-a5ca788f-a331-5d10-85c8-bc4e94e9a03f-attr-7-type" class="er entityLabel">String</text><rect height="22" width="69.51113891601562" y="156" x="54.095550537109375" class="er attributeBoxOdd"/><text style="dominant-baseline: middle; font-size: 10.2px;" transform="translate(59.095550537109375,167)" y="0" x="0" id="text-entity-recipes-a5ca788f-a331-5d10-85c8-bc4e94e9a03f-attr-7-name" class="er entityLabel">origin</text><rect height="22" width="22.68768310546875" y="156" x="123.606689453125" class="er attributeBoxOdd"/><text style="dominant-baseline: middle; font-size: 10.2px;" transform="translate(128.606689453125,167)" y="0" x="0" id="text-entity-recipes-a5ca788f-a331-5d10-85c8-bc4e94e9a03f-attr-7-key" class="er entityLabel"/><rect height="22" width="47.21253967285156" y="156" x="146.29437255859375" class="er attributeBoxOdd"/><text style="dominant-baseline: middle; font-size: 10.2px;" transform="translate(151.29437255859375,167)" y="0" x="0" id="text-entity-recipes-a5ca788f-a331-5d10-85c8-bc4e94e9a03f-attr-7-comment" class="er entityLabel"/><rect height="22" width="54.095550537109375" y="178" x="0" class="er attributeBoxEven"/><text style="dominant-baseline: middle; font-size: 10.2px;" transform="translate(5,189)" y="0" x="0" id="text-entity-recipes-a5ca788f-a331-5d10-85c8-bc4e94e9a03f-attr-8-type" class="er entityLabel">DateTime</text><rect height="22" width="69.51113891601562" y="178" x="54.095550537109375" class="er attributeBoxEven"/><text style="dominant-baseline: middle; font-size: 10.2px;" transform="translate(59.095550537109375,189)" y="0" x="0" id="text-entity-recipes-a5ca788f-a331-5d10-85c8-bc4e94e9a03f-attr-8-name" class="er entityLabel">published_at</text><rect height="22" width="22.68768310546875" y="178" x="123.606689453125" class="er attributeBoxEven"/><text style="dominant-baseline: middle; font-size: 10.2px;" transform="translate(128.606689453125,189)" y="0" x="0" id="text-entity-recipes-a5ca788f-a331-5d10-85c8-bc4e94e9a03f-attr-8-key" class="er entityLabel"/><rect height="22" width="47.21253967285156" y="178" x="146.29437255859375" class="er attributeBoxEven"/><text style="dominant-baseline: middle; font-size: 10.2px;" transform="translate(151.29437255859375,189)" y="0" x="0" id="text-entity-recipes-a5ca788f-a331-5d10-85c8-bc4e94e9a03f-attr-8-comment" class="er entityLabel">nullable</text><rect height="22" width="54.095550537109375" y="200" x="0" class="er attributeBoxOdd"/><text style="dominant-baseline: middle; font-size: 10.2px;" transform="translate(5,211)" y="0" x="0" id="text-entity-recipes-a5ca788f-a331-5d10-85c8-bc4e94e9a03f-attr-9-type" class="er entityLabel">DateTime</text><rect height="22" width="69.51113891601562" y="200" x="54.095550537109375" class="er attributeBoxOdd"/><text style="dominant-baseline: middle; font-size: 10.2px;" transform="translate(59.095550537109375,211)" y="0" x="0" id="text-entity-recipes-a5ca788f-a331-5d10-85c8-bc4e94e9a03f-attr-9-name" class="er entityLabel">created_at</text><rect height="22" width="22.68768310546875" y="200" x="123.606689453125" class="er attributeBoxOdd"/><text style="dominant-baseline: middle; font-size: 10.2px;" transform="translate(128.606689453125,211)" y="0" x="0" id="text-entity-recipes-a5ca788f-a331-5d10-85c8-bc4e94e9a03f-attr-9-key" class="er entityLabel"/><rect height="22" width="47.21253967285156" y="200" x="146.29437255859375" class="er attributeBoxOdd"/><text style="dominant-baseline: middle; font-size: 10.2px;" transform="translate(151.29437255859375,211)" y="0" x="0" id="text-entity-recipes-a5ca788f-a331-5d10-85c8-bc4e94e9a03f-attr-9-comment" class="er entityLabel"/></g><g transform="translate(20,188 )" id="entity-ingredients-dfe1a7c5-69b2-5c12-85c0-2b122290a70f"><rect height="68" width="100" y="0" x="0" class="er entityBox"/><text style="dominant-baseline: middle; text-anchor: middle; font-size: 12px;" transform="translate(50,12)" y="0" x="0" id="text-entity-ingredients-dfe1a7c5-69b2-5c12-85c0-2b122290a70f" class="er entityLabel">ingredients</text><rect height="22" width="38.90184020996094" y="24" x="0" class="er attributeBoxOdd"/><text style="dominant-baseline: middle; font-size: 10.2px;" transform="translate(5,35)" y="0" x="0" id="text-entity-ingredients-dfe1a7c5-69b2-5c12-85c0-2b122290a70f-attr-1-type" class="er entityLabel">String</text><rect height="22" width="36.904693603515625" y="24" x="38.90184020996094" class="er attributeBoxOdd"/><text style="dominant-baseline: middle; font-size: 10.2px;" transform="translate(43.90184020996094,35)" y="0" x="0" id="text-entity-ingredients-dfe1a7c5-69b2-5c12-85c0-2b122290a70f-attr-1-name" class="er entityLabel">id</text><rect height="22" width="24.193466186523438" y="24" x="75.80653381347656" class="er attributeBoxOdd"/><text style="dominant-baseline: middle; font-size: 10.2px;" transform="translate(80.80653381347656,35)" y="0" x="0" id="text-entity-ingredients-dfe1a7c5-69b2-5c12-85c0-2b122290a70f-attr-1-key" class="er entityLabel">PK</text><rect height="22" width="38.90184020996094" y="46" x="0" class="er attributeBoxEven"/><text style="dominant-baseline: middle; font-size: 10.2px;" transform="translate(5,57)" y="0" x="0" id="text-entity-ingredients-dfe1a7c5-69b2-5c12-85c0-2b122290a70f-attr-2-type" class="er entityLabel">String</text><rect height="22" width="36.904693603515625" y="46" x="38.90184020996094" class="er attributeBoxEven"/><text style="dominant-baseline: middle; font-size: 10.2px;" transform="translate(43.90184020996094,57)" y="0" x="0" id="text-entity-ingredients-dfe1a7c5-69b2-5c12-85c0-2b122290a70f-attr-2-name" class="er entityLabel">name</text><rect height="22" width="24.193466186523438" y="46" x="75.80653381347656" class="er attributeBoxEven"/><text style="dominant-baseline: middle; font-size: 10.2px;" transform="translate(80.80653381347656,57)" y="0" x="0" id="text-entity-ingredients-dfe1a7c5-69b2-5c12-85c0-2b122290a70f-attr-2-key" class="er entityLabel"/></g><g transform="translate(220,188 )" id="entity-instructions-5795d2fb-3a34-5547-9eaf-cf482790a572"><rect height="68" width="121.49058532714844" y="0" x="0" class="er entityBox"/><text style="dominant-baseline: middle; text-anchor: middle; font-size: 12px;" transform="translate(60.74529266357422,12)" y="0" x="0" id="text-entity-instructions-5795d2fb-3a34-5547-9eaf-cf482790a572" class="er entityLabel">instructions</text><rect height="22" width="37.39605712890625" y="24" x="0" class="er attributeBoxOdd"/><text style="dominant-baseline: middle; font-size: 10.2px;" transform="translate(5,35)" y="0" x="0" id="text-entity-instructions-5795d2fb-3a34-5547-9eaf-cf482790a572-attr-1-type" class="er entityLabel">String</text><rect height="22" width="61.40684509277344" y="24" x="37.39605712890625" class="er attributeBoxOdd"/><text style="dominant-baseline: middle; font-size: 10.2px;" transform="translate(42.39605712890625,35)" y="0" x="0" id="text-entity-instructions-5795d2fb-3a34-5547-9eaf-cf482790a572-attr-1-name" class="er entityLabel">id</text><rect height="22" width="22.68768310546875" y="24" x="98.80290222167969" class="er attributeBoxOdd"/><text style="dominant-baseline: middle; font-size: 10.2px;" transform="translate(103.80290222167969,35)" y="0" x="0" id="text-entity-instructions-5795d2fb-3a34-5547-9eaf-cf482790a572-attr-1-key" class="er entityLabel">PK</text><rect height="22" width="37.39605712890625" y="46" x="0" class="er attributeBoxEven"/><text style="dominant-baseline: middle; font-size: 10.2px;" transform="translate(5,57)" y="0" x="0" id="text-entity-instructions-5795d2fb-3a34-5547-9eaf-cf482790a572-attr-2-type" class="er entityLabel">String</text><rect height="22" width="61.40684509277344" y="46" x="37.39605712890625" class="er attributeBoxEven"/><text style="dominant-baseline: middle; font-size: 10.2px;" transform="translate(42.39605712890625,57)" y="0" x="0" id="text-entity-instructions-5795d2fb-3a34-5547-9eaf-cf482790a572-attr-2-name" class="er entityLabel">description</text><rect height="22" width="22.68768310546875" y="46" x="98.80290222167969" class="er attributeBoxEven"/><text style="dominant-baseline: middle; font-size: 10.2px;" transform="translate(103.80290222167969,57)" y="0" x="0" id="text-entity-instructions-5795d2fb-3a34-5547-9eaf-cf482790a572-attr-2-key" class="er entityLabel"/></g><g transform="translate(212.57634735107422,20 )" id="entity-instructionsimages-578cc592-500c-5f68-aa4d-de4c59a0134f"><rect height="68" width="136.337890625" y="0" x="0" class="er entityBox"/><text style="dominant-baseline: middle; text-anchor: middle; font-size: 12px;" transform="translate(68.1689453125,12)" y="0" x="0" id="text-entity-instructionsimages-578cc592-500c-5f68-aa4d-de4c59a0134f" class="er entityLabel">instructions_images</text><rect height="22" width="44.376607259114586" y="24" x="0" class="er attributeBoxOdd"/><text style="dominant-baseline: middle; font-size: 10.2px;" transform="translate(5,35)" y="0" x="0" id="text-entity-instructionsimages-578cc592-500c-5f68-aa4d-de4c59a0134f-attr-1-type" class="er entityLabel">String</text><rect height="22" width="62.293050130208336" y="24" x="44.376607259114586" class="er attributeBoxOdd"/><text style="dominant-baseline: middle; font-size: 10.2px;" transform="translate(49.376607259114586,35)" y="0" x="0" id="text-entity-instructionsimages-578cc592-500c-5f68-aa4d-de4c59a0134f-attr-1-name" class="er entityLabel">id</text><rect height="22" width="29.668233235677082" y="24" x="106.66965738932292" class="er attributeBoxOdd"/><text style="dominant-baseline: middle; font-size: 10.2px;" transform="translate(111.66965738932292,35)" y="0" x="0" id="text-entity-instructionsimages-578cc592-500c-5f68-aa4d-de4c59a0134f-attr-1-key" class="er entityLabel">PK</text><rect height="22" width="44.376607259114586" y="46" x="0" class="er attributeBoxEven"/><text style="dominant-baseline: middle; font-size: 10.2px;" transform="translate(5,57)" y="0" x="0" id="text-entity-instructionsimages-578cc592-500c-5f68-aa4d-de4c59a0134f-attr-2-type" class="er entityLabel">String</text><rect height="22" width="62.293050130208336" y="46" x="44.376607259114586" class="er attributeBoxEven"/><text style="dominant-baseline: middle; font-size: 10.2px;" transform="translate(49.376607259114586,57)" y="0" x="0" id="text-entity-instructionsimages-578cc592-500c-5f68-aa4d-de4c59a0134f-attr-2-name" class="er entityLabel">image_url</text><rect height="22" width="29.668233235677082" y="46" x="106.66965738932292" class="er attributeBoxEven"/><text style="dominant-baseline: middle; font-size: 10.2px;" transform="translate(111.66965738932292,57)" y="0" x="0" id="text-entity-instructionsimages-578cc592-500c-5f68-aa4d-de4c59a0134f-attr-2-key" class="er entityLabel"/></g><rect height="14" width="23.958984375" y="621" x="163.39315795898438" class="er relationshipLabelBox"/><text style="text-anchor: middle; dominant-baseline: middle; font-size: 12px;" y="628" x="175.37265014648438" id="rel1" class="er relationshipLabel">user</text><rect height="14" width="34.2578125" y="302.1109924316406" x="59.404701232910156" class="er relationshipLabelBox"/><text style="text-anchor: middle; dominant-baseline: middle; font-size: 12px;" y="309.1109924316406" x="76.53360748291016" id="rel2" class="er relationshipLabel">recipe</text><rect height="14" width="34.2578125" y="302.1109924316406" x="257.08282470703125" class="er relationshipLabelBox"/><text style="text-anchor: middle; dominant-baseline: middle; font-size: 12px;" y="309.1109924316406" x="274.21173095703125" id="rel3" class="er relationshipLabel">recipe</text><rect height="14" width="58.375" y="131" x="251.55780029296875" class="er relationshipLabelBox"/><text style="text-anchor: middle; dominant-baseline: middle; font-size: 12px;" y="138" x="280.74530029296875" id="rel4" class="er relationshipLabel">instruction</text></svg>